<?xml version="1.0" encoding="UTF-8"?>
<svg width="1097px" height="659px" viewBox="0 0 1097 659" version="1.1" xmlns="http://www.w3.org/2000/svg" xmlns:xlink="http://www.w3.org/1999/xlink">
    <title>编组 2</title>
    <g id="页面-1" stroke="none" stroke-width="1" fill="none" fill-rule="evenodd">
        <g id="编组-2">
            <rect id="矩形" fill="#FFFFFF" x="0" y="0" width="1097" height="659"></rect>
            <g id="编组" transform="translate(317.000000, 130.000000)">
                <circle id="椭圆形" fill="#A0616A" fill-rule="nonzero" cx="252.5" cy="68.5" r="42.5"></circle>
                <path d="M220.560349,90 C220.560349,90 228.620293,150.743852 216.220384,157.561982 C203.820476,164.380113 290,165 290,165 C290,165 270.780106,112.314047 279.460035,96.1983132 L220.560349,90 Z" id="路径" fill="#A0616A" fill-rule="nonzero"></path>
                <path d="M352,164.85104 L344.880522,197.3391 L329.826755,266.073643 L329.376009,269.837857 L324.18087,313.41587 L320.72515,342.36557 L318.407852,361.812077 C304.319144,369.068323 294.10801,374.077623 294.10801,374.077623 C294.10801,374.077623 293.229633,369.664806 291.813827,364.018486 C281.926305,366.989319 263.630634,371.917543 248.126121,372.90203 C253.772006,379.208536 256.366686,385.132829 252.847398,389.505108 C242.225969,402.685648 198.376456,375.073692 183.039528,364.777119 C182.682469,367.242427 182.547087,369.734891 182.635012,372.224472 L170.898275,363.178776 L172.059814,342.36557 L174.018826,307.149902 L176.480593,262.986988 C175.704346,261.095982 175.053774,259.155589 174.533139,257.178517 C170.938727,244.368608 166.575735,218.789327 163.229811,197.3391 C160.536892,180.075836 158.514313,165.48806 158.086682,162.384032 C158.028894,161.978655 158,161.770175 158,161.770175 L222.971017,133 C227.588276,143.730905 249.148997,146.956546 249.148997,146.956546 C267.011259,145.723043 281.013284,136.283553 281.013284,136.283553 L352,164.85104 Z" id="路径" fill="#D0CDE1" fill-rule="nonzero"></path>
                <path d="M300,361.718425 C300,361.718425 297.245188,362.657216 292.765726,363.98765 C282.863451,366.942251 264.540482,371.843548 249.012836,372.822655 C235.643897,373.675055 224.346855,371.624688 222.280746,362.945189 C221.395271,359.213061 222.651141,356.143271 225.38859,353.62063 C233.560426,346.081502 254.904429,343.380318 271.83263,342.453045 C276.613039,342.19387 281.034627,342.072921 284.715426,342.026846 C290.965838,341.946213 295.063331,342.072921 295.063331,342.072921 L295.161717,342.453045 L300,361.718425 Z" id="路径" fill="#A0616A" fill-rule="nonzero"></path>
                <path d="M217.23728,28.2103818 L209.30027,25.0313829 C209.30027,25.0313829 225.895794,6.75215491 248.985414,8.34172079 L242.491319,1.18891112 C242.491319,1.18891112 258.365331,-5.16901743 272.796239,11.5206389 C280.382297,20.2940046 289.159434,30.6066912 294.631051,42.2237776 L303.131045,42.2237776 L299.58347,50.0387697 L312,57.8537675 L299.255649,56.450033 C300.015063,60.7296127 300.131626,65.0986399 299.601486,69.4126564 C299.05477,73.7279861 296.853646,77.6620141 293.462659,80.3844703 L293.462659,80.3844703 C293.462659,80.3844703 283.619318,60.0002498 283.619318,56.8212393 L283.619318,64.7687395 C283.619318,64.7687395 275.682315,57.6160222 275.682315,52.8475614 L271.353077,58.4107878 L269.188462,49.6685047 L242.491336,58.4107878 L246.820567,51.2580995 L230.225043,53.642327 L236.719139,44.9000438 C236.719139,44.9000438 217.958999,55.2317716 217.237297,63.9740721 C216.515843,72.7162339 211.024668,81 211.024668,81 C211.024668,81 196.312472,40.1315541 217.23728,28.2103818 Z" id="路径" fill="#2F2E41" fill-rule="nonzero"></path>
                <path d="M398.675872,314.196463 C394.323103,318.893742 383.537068,325.968585 370.461325,333.627695 C365.597149,336.47383 360.419155,339.406737 355.136555,342.32229 C342.531539,349.281436 329.333756,356.176949 318.443115,361.747737 C304.274822,368.996125 294.006005,374 294.006005,374 C294.006005,374 293.122666,369.591962 291.698863,363.951756 C289.79271,356.402558 286.921859,346.643555 283.928966,342.32229 C283.82436,342.171884 283.719754,342.033048 283.615149,341.894212 C282.743432,340.754602 281.865905,340.089347 281,340.089347 L324.248745,313.403941 L342.93834,301.868997 L329.473231,269.873121 L312.585183,229.737994 L322.778451,197.452877 L333.024021,165 L352.225023,165 C352.225023,165 358.58274,178.814166 366.712946,198.077667 C367.927537,200.958511 369.182808,203.960836 370.461325,207.061503 C387.186647,247.555255 408.038098,304.101934 398.675872,314.196463 Z" id="路径" fill="#D0CDE1" fill-rule="nonzero"></path>
                <path d="M253.39291,389.478562 C242.735152,402.759217 198.73566,374.937528 183.346275,364.562745 C179.994706,362.304567 178,360.874971 178,360.874971 L192.07891,341.980963 L196.538004,336 C196.538004,336 200.527415,338.129806 206.424553,341.595847 C206.6391,341.724219 206.853647,341.852591 207.073992,341.980963 C212.159332,344.986032 218.543549,348.913045 224.985752,353.295195 C233.874948,359.346179 242.86272,366.249085 248.655484,372.749371 C254.320703,379.103762 256.924252,385.073043 253.39291,389.478562 Z" id="路径" fill="#A0616A" fill-rule="nonzero"></path>
                <path d="M207,341.735891 C205.422569,341.729847 203.847489,341.857811 202.291847,342.118394 C188.928829,344.407617 184.98793,356.468056 183.86611,364.546985 C183.506967,367.014167 183.370794,369.508526 183.459233,372 L171.653974,362.947427 L167.352698,359.649786 C157.000573,356.05078 147.77608,349.658341 139.778032,342.118394 C132.839567,335.461653 126.615615,328.102201 121.206983,320.159238 C115.819801,312.330523 111.017321,304.117399 106.838396,295.586312 C104.477837,290.766747 104.386269,285.150734 106.588457,280.25721 L121.206983,247.773423 L142.573861,200.296674 C142.730777,199.166583 142.903206,198.061574 143.091148,196.981648 C147.328486,172.756451 158.680367,162 158.680367,162 L167.352669,162 L173.153579,196.981648 L180.361123,240.442114 L175.31003,256.866565 L163.638459,294.798094 L174.792714,306.87592 L207,341.735891 Z" id="路径" fill="#D0CDE1" fill-rule="nonzero"></path>
                <path d="M215.596169,241.346867 L223.012503,250.083268 C225.767874,249.552825 228.645256,248.929475 231.608862,248.229432 L229.478754,241.346867 L234.687095,247.482234 C266.083898,239.685191 305,224.526134 305,224.526134 C305,224.526134 262.986059,227.63667 231.616171,220.716724 C217.736516,217.654987 203.456109,224.602162 197.760466,237.743796 C194.449932,245.38223 194.969853,252 206.711312,252 C210.678676,251.9316 214.63499,251.555858 218.545401,250.876083 L215.596169,241.346867 Z" id="路径" fill="#575FF2" fill-rule="nonzero"></path>
                <path d="M384,382.72522 L384,386.234857 C384,387.198077 383.823315,388.153146 383.473295,389.05066 C383.317848,389.45069 383.13009,389.837428 382.911878,390.207048 C381.508602,392.560115 378.968751,394.001203 376.226976,394 L117.773024,394 C115.031247,394.001212 112.491391,392.560122 111.088122,390.207048 C110.869898,389.837434 110.68214,389.450696 110.526705,389.05066 C110.176685,388.153146 110,387.198077 110,386.234857 L110,382.72522 C110,380.665607 110.818227,378.690193 112.276069,377.233827 C113.73391,375.777461 115.711325,374.959527 117.773024,374.960077 L132.670806,374.960077 L132.670806,373.323789 C132.670665,373.237872 132.704767,373.155433 132.765581,373.09468 C132.826396,373.033927 132.908918,373 132.994923,373 L140.76793,373 C140.853935,373 140.936457,373.033927 140.997272,373.09468 C141.058086,373.155433 141.092189,373.237872 141.092047,373.323789 L141.092047,374.960077 L145.947977,374.960077 L145.947977,373.323789 C145.947836,373.237872 145.981938,373.155433 146.042752,373.09468 C146.103567,373.033927 146.186089,373 146.272094,373 L154.045101,373 C154.131106,373 154.213628,373.033927 154.274443,373.09468 C154.335257,373.155433 154.36936,373.237872 154.369218,373.323789 L154.369218,374.960077 L159.230965,374.960077 L159.230965,373.323789 C159.230824,373.237872 159.264926,373.155433 159.32574,373.09468 C159.386555,373.033927 159.469077,373 159.555082,373 L167.328089,373 C167.414094,373 167.496616,373.033927 167.557431,373.09468 C167.618245,373.155433 167.652347,373.237872 167.652206,373.323789 L167.652206,374.960077 L172.508165,374.960077 L172.508165,373.323789 C172.508024,373.237872 172.542126,373.155433 172.60294,373.09468 C172.663755,373.033927 172.746277,373 172.832282,373 L180.605289,373 C180.691294,373 180.773816,373.033927 180.834631,373.09468 C180.895445,373.155433 180.929547,373.237872 180.929406,373.323789 L180.929406,374.960077 L185.785365,374.960077 L185.785365,373.323789 C185.785224,373.237872 185.819326,373.155433 185.88014,373.09468 C185.940955,373.033927 186.023477,373 186.109482,373 L193.882489,373 C193.968494,373 194.051016,373.033927 194.111831,373.09468 C194.172645,373.155433 194.206747,373.237872 194.206606,373.323789 L194.206606,374.960077 L199.068353,374.960077 L199.068353,373.323789 C199.068211,373.237872 199.102314,373.155433 199.163128,373.09468 C199.223942,373.033927 199.306465,373 199.392469,373 L207.165477,373 C207.251482,373 207.334004,373.033927 207.394818,373.09468 C207.455633,373.155433 207.489735,373.237872 207.489594,373.323789 L207.489594,374.960077 L212.345553,374.960077 L212.345553,373.323789 C212.345411,373.237872 212.379514,373.155433 212.440328,373.09468 C212.501142,373.033927 212.583665,373 212.669669,373 L273.557265,373 C273.643269,373 273.725792,373.033927 273.786606,373.09468 C273.847421,373.155433 273.881523,373.237872 273.881381,373.323789 L273.881381,374.960077 L278.743129,374.960077 L278.743129,373.323789 C278.742987,373.237872 278.777089,373.155433 278.837904,373.09468 C278.898718,373.033927 278.981241,373 279.067245,373 L286.840282,373 C287.018559,373.001743 287.162654,373.145692 287.164398,373.323789 L287.164398,374.960077 L292.020358,374.960077 L292.020358,373.323789 C292.020216,373.237872 292.054318,373.155433 292.115133,373.09468 C292.175947,373.033927 292.25847,373 292.344474,373 L300.117482,373 C300.203491,373 300.28602,373.033918 300.34684,373.094671 C300.40766,373.155424 300.441767,373.237867 300.441627,373.323789 L300.441627,374.960077 L305.297587,374.960077 L305.297587,373.323789 C305.297445,373.237872 305.331547,373.155433 305.392362,373.09468 C305.453176,373.033927 305.535699,373 305.621703,373 L313.394711,373 C313.480715,373 313.563238,373.033927 313.624052,373.09468 C313.684866,373.155433 313.718969,373.237872 313.718827,373.323789 L313.718827,374.960077 L318.580574,374.960077 L318.580574,373.323789 C318.580433,373.237872 318.614535,373.155433 318.675349,373.09468 C318.736164,373.033927 318.818686,373 318.904691,373 L326.677698,373 C326.854838,373.002222 326.996995,373.146817 326.996027,373.323789 L326.996027,374.960077 L331.857774,374.960077 L331.857774,373.323789 C331.857633,373.237872 331.891735,373.155433 331.952549,373.09468 C332.013364,373.033927 332.095886,373 332.181891,373 L339.954899,373 C340.040903,373 340.123426,373.033927 340.18424,373.09468 C340.245054,373.155433 340.279157,373.237872 340.279015,373.323789 L340.279015,374.960077 L345.134974,374.960077 L345.134974,373.323789 C345.134833,373.237872 345.168935,373.155433 345.229749,373.09468 C345.290564,373.033927 345.373086,373 345.459091,373 L353.232099,373 C353.318103,373 353.400626,373.033927 353.46144,373.09468 C353.522254,373.155433 353.556357,373.237872 353.556215,373.323789 L353.556215,374.960077 L376.227005,374.960077 C378.288698,374.959536 380.266105,375.777474 381.72394,377.233839 C383.181775,378.690204 384,380.665613 384,382.72522 L384,382.72522 Z" id="路径" fill="#3F3D56" fill-rule="nonzero"></path>
                <rect id="矩形" fill="#3F3D56" fill-rule="nonzero" x="35" y="389" width="424" height="1"></rect>
                <path d="M363.47797,234.986486 L267.058813,234.986486 L267.058813,233 L223.338634,233 L223.338634,234.986486 L126.52203,234.986486 C122.920012,234.986486 120,237.90533 120,241.505907 L120,373.480556 C120,377.081138 122.920007,380 126.52203,380 L363.47797,380 C367.079993,380 370,377.081138 370,373.480556 L370,241.505907 C370,239.776849 369.312862,238.118608 368.089743,236.895979 C366.866625,235.67335 365.20772,234.986484 363.47797,234.986486 L363.47797,234.986486 Z" id="路径" fill="#3F3D56" fill-rule="nonzero"></path>
                <circle id="椭圆形" stroke="#D0CDE1" stroke-width="2" cx="245.5" cy="280.5" r="14.5"></circle>
                <circle id="椭圆形" fill="#575FF2" fill-rule="nonzero" cx="240.5" cy="284.5" r="14.5"></circle>
                <rect id="矩形" fill="#D0CDE1" fill-rule="nonzero" x="47" y="383" width="16" height="16"></rect>
                <path d="M53,370 L53,390 L73,390 L73,370 L53,370 Z M72.1294118,389.129412 L53.8647059,389.129412 L53.8647059,370.870588 L72.1294118,370.870588 L72.1294118,389.129412 Z" id="形状" fill="#3F3D56" fill-rule="nonzero"></path>
                <rect id="矩形" fill="#D0CDE1" fill-rule="nonzero" x="422" y="383" width="16" height="16"></rect>
                <path d="M428,370 L428,390 L448,390 L448,370 L428,370 Z M447.129412,389.129412 L428.864706,389.129412 L428.864706,370.870588 L447.129412,370.870588 L447.129412,389.129412 Z" id="形状" fill="#3F3D56" fill-rule="nonzero"></path>
                <circle id="椭圆形" fill="#575FF2" fill-rule="nonzero" cx="55" cy="88" r="46"></circle>
                <path d="M70.7354159,33.3949385 C66.5949688,32.8683538 62.4044952,32.8683538 58.2640482,33.3949385 C39.4276655,35.8681604 23.7566083,49.0848507 18.1409384,67.2340539 C16.8902172,71.2844601 16.1819462,75.4827942 16.0346332,79.7193504 C16.0138844,80.3082625 16,80.9041543 16,81.5 C16.0267634,108.274717 37.7251762,129.973236 64.4997609,130 C65.532107,130 66.5644531,129.965367 67.5829667,129.902987 C69.9737695,129.752993 72.3499787,129.424125 74.6916515,128.919142 C97.7785363,123.954436 113.935148,103.084824 112.957962,79.4902714 C111.980776,55.8957188 94.153794,36.4335762 70.7354447,33.3949385 L70.7354159,33.3949385 Z M79.6801352,126.106147 L79.6732189,126.106147 C75.7672647,127.439038 71.7016494,128.247497 67.5829148,128.510337 C66.5644012,128.57965 65.5320551,128.614283 64.499709,128.614283 C38.4925304,128.582459 17.4174817,107.507307 17.3856582,81.5 C17.3856582,80.9041543 17.3995253,80.3082625 17.4202915,79.7193504 C18.4100395,54.4247628 39.1859119,34.4192947 64.499709,34.3857169 C87.5512789,34.386995 107.217372,51.0667453 110.981389,73.8090441 C114.745406,96.5513429 101.502042,118.677903 79.6801121,126.106147 L79.6801352,126.106147 Z" id="形状" fill="#3F3D56" fill-rule="nonzero"></path>
                <rect id="矩形" fill="#3F3D56" fill-rule="nonzero" x="64" y="37" width="1" height="10"></rect>
                <polygon id="矩形" fill="#3F3D56" fill-rule="nonzero" transform="translate(36.738619, 53.194191) rotate(-45.000000) translate(-36.738619, -53.194191) " points="36.0426904 48.3226973 37.4345481 48.3226973 37.4345481 58.0656841 36.0426904 58.0656841"></polygon>
                <polygon id="矩形" fill="#3F3D56" fill-rule="nonzero" transform="translate(25.500000, 81.000000) rotate(-90.000000) translate(-25.500000, -81.000000) " points="25 76 26 76 26 86 25 86"></polygon>
                <polygon id="矩形" fill="#3F3D56" fill-rule="nonzero" transform="translate(36.738621, 109.293026) rotate(-135.000000) translate(-36.738621, -109.293026) " points="36.0426922 104.421533 37.4345499 104.421533 37.4345499 114.164519 36.0426922 114.164519"></polygon>
                <polygon id="矩形" fill="#3F3D56" fill-rule="nonzero" transform="translate(92.837456, 53.194188) rotate(-135.000000) translate(-92.837456, -53.194188) " points="92.1415274 48.3226945 93.5333852 48.3226945 93.5333852 58.0656813 92.1415274 58.0656813"></polygon>
                <polygon id="矩形" fill="#3F3D56" fill-rule="nonzero" transform="translate(104.500000, 81.000000) rotate(-90.000000) translate(-104.500000, -81.000000) " points="104 76 105 76 105 86 104 86"></polygon>
                <polygon id="矩形" fill="#3F3D56" fill-rule="nonzero" transform="translate(92.837460, 109.293029) rotate(-45.000000) translate(-92.837460, -109.293029) " points="92.1415315 104.421535 93.5333892 104.421535 93.5333892 114.164522 92.1415315 114.164522"></polygon>
                <rect id="矩形" fill="#3F3D56" fill-rule="nonzero" x="64" y="116" width="1" height="10"></rect>
                <path d="M66.6000097,78.6999157 C65.3558156,77.7666948 63.6450458,77.7666948 62.4008517,78.6999157 C61.986197,79.0149177 61.6447625,79.4160836 61.4000764,79.8757692 C60.5371101,81.523388 61.1135055,83.5582576 62.7123242,84.5084456 C64.3111429,85.4586335 66.3738495,84.9921987 67.4083754,83.446539 C68.4429014,81.9008792 68.0878428,79.8159592 66.600033,78.6999157 L66.6000097,78.6999157 Z M64.5004307,83.5993139 C63.3422746,83.5959181 62.4042473,82.6578182 62.4008517,81.4995726 C62.403563,81.0749061 62.5327022,80.6606724 62.7717965,80.3097107 C63.3379141,79.4897526 64.4026876,79.1812245 65.3194305,79.5715098 C66.2361734,79.961795 66.7518765,80.9431801 66.5533295,81.9196241 C66.3547824,82.8960681 65.4967816,83.5980853 64.5004307,83.5993139 L64.5004307,83.5993139 Z" id="形状" fill="#3F3D56" fill-rule="nonzero"></path>
                <rect id="矩形" fill="#3F3D56" fill-rule="nonzero" x="58" y="20" width="13" height="13"></rect>
                <ellipse id="椭圆形" fill="#3F3D56" fill-rule="nonzero" cx="64.5" cy="17" rx="16.5" ry="6"></ellipse>
                <rect id="矩形" fill="#3F3D56" fill-rule="nonzero" x="63" y="55" width="4" height="24"></rect>
                <rect id="矩形" fill="#3F3D56" fill-rule="nonzero" x="0" y="128" width="131" height="1"></rect>
                <path d="M86.9806548,347.309452 C87.5192246,365.806943 76.7440122,372.585836 63.2214286,372.981954 C62.9073225,372.991152 62.5946286,372.996791 62.2833469,372.998871 C61.6562468,373.003665 61.0352341,372.99319 60.420309,372.967446 C48.1904881,372.458195 38.5098698,365.946592 38.0090024,348.743983 C37.4906806,330.94142 59.5204723,307.810444 61.1733128,306.099441 L61.1762623,306.097843 C61.2390497,306.032641 61.2711995,306 61.2711995,306 C61.2711995,306 86.4421311,328.813485 86.9806548,347.309452 Z" id="路径" fill="#D0CDE1" fill-rule="nonzero"></path>
                <path d="M63.0575037,370.178517 L71.8819329,357.364912 L63.075553,371.557019 L63.0939344,372.998871 C62.449721,373.003665 61.8117613,372.99319 61.1800552,372.967444 L61.617745,354.433378 L61.6057557,354.290371 L61.6219016,354.262748 L61.6637933,352.511386 L52,338.811282 L61.6523909,351.200596 L61.6866455,351.570782 L62.0172254,337.567567 L53.6703084,323.363696 L62.0409907,335.107608 L61.95362,306.096562 L61.9538097,306 L61.9566499,306.094952 L62.5107353,328.959561 L70.1179507,319.671943 L62.5356391,330.929295 L62.7016643,343.45486 L69.7018679,331.230398 L62.7273923,345.296333 L62.8198149,352.261165 L73,335.232638 L62.8507668,354.690901 L63.0575037,370.178517 Z" id="路径" fill="#3F3D56" fill-rule="nonzero"></path>
                <path d="M462.980655,347.309452 C463.519225,365.806943 452.744012,372.585836 439.221429,372.981954 C438.907326,372.991152 438.594632,372.996791 438.283347,372.998871 C437.656247,373.003665 437.035234,372.99319 436.420309,372.967446 C424.190488,372.458195 414.50987,365.946592 414.009002,348.743983 C413.490681,330.94142 435.520472,307.810444 437.173313,306.099441 L437.176262,306.097843 C437.23905,306.032641 437.271199,306 437.271199,306 C437.271199,306 462.442131,328.813485 462.980655,347.309452 Z" id="路径" fill="#D0CDE1" fill-rule="nonzero"></path>
                <path d="M438.057504,370.178517 L446.881933,357.364912 L438.075553,371.557019 L438.093934,372.998871 C437.449721,373.003665 436.811761,372.99319 436.180055,372.967444 L436.617745,354.433378 L436.605756,354.290371 L436.621902,354.262748 L436.663793,352.511386 L427,338.811282 L436.652391,351.200596 L436.686646,351.570782 L437.017225,337.567567 L428.670308,323.363696 L437.040991,335.107608 L436.95362,306.096562 L436.95381,306 L436.95665,306.094952 L437.510735,328.959561 L445.117951,319.671943 L437.535639,330.929295 L437.701664,343.45486 L444.701868,331.230398 L437.727392,345.296333 L437.819815,352.261165 L448,335.232638 L437.850767,354.690901 L438.057504,370.178517 Z" id="路径" fill="#3F3D56" fill-rule="nonzero"></path>
            </g>
        </g>
    </g>
</svg>